<mxGraphModel dx="1200" dy="700" grid="1" gridSize="10" guides="1" tooltips="1" connect="1" arrows="1" fold="1" page="1" pageScale="1" pageWidth="850" pageHeight="1100" math="0" shadow="0">
  <root>
    <mxCell id="0" />
    <mxCell id="1" parent="0" />
    <!-- ============================================== -->
    <!-- MAIN FLOWCHART: main() -->
    <!-- ============================================== -->
    <mxCell id="main_start" value="เริ่มต้น (โปรแกรมหลัก)" style="ellipse;whiteSpace=wrap;html=1;" vertex="1" parent="1">
      <mxGeometry x="100" y="20" width="120" height="40" as="geometry" />
    </mxCell>
    <mxCell id="main_init" value="ตั้งค่าตัวสุ่มเริ่มต้น (srand)" style="rounded=0;whiteSpace=wrap;html=1;" vertex="1" parent="1">
      <mxGeometry x="100" y="80" width="120" height="40" as="geometry" />
    </mxCell>
    <mxCell id="main_flow_1" value="" style="endArrow=classic;html=1;exitX=0.5;exitY=1;entryX=0.5;entryY=0;" edge="1" parent="1" source="main_start" target="main_init">
      <mxGeometry relative="1" as="geometry" />
    </mxCell>
    <!-- Loop: do { ... } while (command != -1) -->
    <mxCell id="main_loop_condition" value="command = -1" style="rhombus;whiteSpace=wrap;html=1;" vertex="1" parent="1">
      <mxGeometry x="110" y="520" width="100" height="60" as="geometry" />
    </mxCell>
    <mxCell id="main_flow_loop_init" value="" style="endArrow=classic;html=1;entryX=0.5;entryY=0;" edge="1" parent="1" target="main_loop_condition">
      <mxGeometry width="50" height="50" relative="1" as="geometry">
        <mxPoint x="160" y="500" as="sourcePoint" />
      </mxGeometry>
    </mxCell>
    <mxCell id="main_flow_loop_back" value="" style="endArrow=classic;html=1;exitX=0.5;exitY=1;entryX=0.5;entryY=0;" edge="1" parent="1" source="main_init">
      <mxGeometry relative="1" as="geometry">
        <mxPoint x="160" y="120" as="sourcePoint" />
        <mxPoint x="160" y="150" as="targetPoint" />
      </mxGeometry>
    </mxCell>
    <!-- Loop Start -->
    <mxCell id="main_prompt" value="แสดงข้อความ &quot;Do you want to play...&quot;" style="shape=parallelogram;perimeter=parallelogramPerimeter;whiteSpace=wrap;html=1;" vertex="1" parent="1">
      <mxGeometry x="90" y="150" width="140" height="40" as="geometry" />
    </mxCell>
    <mxCell id="main_input" value="รับค่า command" style="shape=parallelogram;perimeter=parallelogramPerimeter;whiteSpace=wrap;html=1;" vertex="1" parent="1">
      <mxGeometry x="100" y="210" width="120" height="40" as="geometry" />
    </mxCell>
    <mxCell id="main_flow_2" value="" style="endArrow=classic;html=1;exitX=0.5;exitY=1;entryX=0.5;entryY=0;" edge="1" parent="1" source="main_prompt" target="main_input">
      <mxGeometry relative="1" as="geometry" />
    </mxCell>
    <!-- Condition: Input Error (scanf != 1) -->
    <mxCell id="main_cond_input" value="รับค่า command สำเร็จ หรือไม่" style="rhombus;whiteSpace=wrap;html=1;" vertex="1" parent="1">
      <mxGeometry x="90" y="270" width="140" height="60" as="geometry" />
    </mxCell>
    <mxCell id="main_flow_3" value="" style="endArrow=classic;html=1;exitX=0.5;exitY=1;entryX=0.5;entryY=0;" edge="1" parent="1" source="main_input" target="main_cond_input">
      <mxGeometry relative="1" as="geometry" />
    </mxCell>
    <!-- Path: Input Error (False) -->
    <mxCell id="main_error_msg" value="แสดง &quot;Invalid input...&quot;" style="shape=parallelogram;perimeter=parallelogramPerimeter;whiteSpace=wrap;html=1;" vertex="1" parent="1">
      <mxGeometry x="300" y="270" width="120" height="40" as="geometry" />
    </mxCell>
    <mxCell id="main_error_clear" value="ล้าง Input Buffer" style="rounded=0;whiteSpace=wrap;html=1;" vertex="1" parent="1">
      <mxGeometry x="300" y="330" width="120" height="40" as="geometry" />
    </mxCell>
    <mxCell id="main_flow_error_1" value="เท็จ" style="endArrow=classic;html=1;exitX=1;exitY=0.5;entryX=0;entryY=0.5;" edge="1" parent="1" source="main_cond_input" target="main_error_msg">
      <mxGeometry relative="1" as="geometry">
        <mxPoint x="230" y="300" as="sourcePoint" />
      </mxGeometry>
    </mxCell>
    <mxCell id="main_flow_error_2" value="" style="endArrow=classic;html=1;exitX=0.5;exitY=1;entryX=0.5;entryY=0;" edge="1" parent="1" source="main_error_msg" target="main_error_clear">
      <mxGeometry relative="1" as="geometry" />
    </mxCell>
    <mxCell id="main_flow_error_loop" value="" style="endArrow=classic;html=1;exitX=0.5;exitY=1;entryX=1;entryY=0.5;" edge="1" parent="1" source="main_error_clear" target="main_prompt">
      <mxGeometry relative="1" as="geometry">
        <mxPoint x="360" y="370" as="sourcePoint" />
        <mxPoint x="360" y="170" as="targetPoint" />
        <Array as="points">
          <mxPoint x="360" y="440" />
          <mxPoint x="500" y="440" />
          <mxPoint x="500" y="170" />
          <mxPoint x="230" y="170" />
        </Array>
      </mxGeometry>
    </mxCell>
    <!-- Path: Input Success (True) -->
    <mxCell id="main_cond_play" value="command = 1" style="rhombus;whiteSpace=wrap;html=1;" vertex="1" parent="1">
      <mxGeometry x="110" y="360" width="100" height="60" as="geometry" />
    </mxCell>
    <mxCell id="main_flow_4" value="จริง" style="endArrow=classic;html=1;exitX=0.5;exitY=1;entryX=0.5;entryY=0;" edge="1" parent="1" source="main_cond_input" target="main_cond_play">
      <mxGeometry relative="1" as="geometry" />
    </mxCell>
    <!-- Path: Play Game (True) -->
    <mxCell id="main_call_func" value="เรียกใช้ playGame()" style="shape=process;whiteSpace=wrap;html=1;rounded=0;fillColor=#dae8fc;strokeColor=#6c8ebf;fontFamily=Helvetica;fontStyle=0" vertex="1" parent="1">
      <mxGeometry x="100" y="450" width="120" height="40" as="geometry" />
    </mxCell>
    <mxCell id="main_flow_5" value="จริง" style="endArrow=classic;html=1;exitX=0.5;exitY=1;entryX=0.5;entryY=0;" edge="1" parent="1" source="main_cond_play" target="main_call_func">
      <mxGeometry relative="1" as="geometry" />
    </mxCell>
    <mxCell id="main_flow_func_return" value="" style="endArrow=classic;html=1;exitX=0.5;exitY=1;entryX=0.5;entryY=0;" edge="1" parent="1" source="main_call_func" target="main_prompt">
      <mxGeometry relative="1" as="geometry">
        <mxPoint x="160" y="490" as="sourcePoint" />
        <mxPoint x="160" y="150" as="targetPoint" />
        <Array as="points">
          <mxPoint x="160" y="500" />
          <mxPoint x="160" y="520" />
          <mxPoint x="160" y="520" />
          <mxPoint x="160" y="520" />
          <mxPoint x="160" y="520" />
        </Array>
      </mxGeometry>
    </mxCell>
    <mxCell id="main_flow_func_return_to_check" value="" style="endArrow=classic;html=1;exitX=0.5;exitY=1;entryX=0.5;entryY=0;" edge="1" parent="1" source="main_call_func" target="main_loop_condition">
      <mxGeometry relative="1" as="geometry">
        <mxPoint x="160" y="490" as="sourcePoint" />
        <mxPoint x="160" y="520" as="targetPoint" />
      </mxGeometry>
    </mxCell>
    <!-- Path: Command Check (False) -->
    <mxCell id="main_cond_exit" value="command = -1" style="rhombus;whiteSpace=wrap;html=1;" vertex="1" parent="1">
      <mxGeometry x="290" y="360" width="120" height="60" as="geometry" />
    </mxCell>
    <mxCell id="main_flow_6" value="เท็จ" style="endArrow=classic;html=1;exitX=1;exitY=0.5;entryX=0.5;entryY=0;" edge="1" parent="1" source="main_cond_play" target="main_cond_exit">
      <mxGeometry relative="1" as="geometry">
        <mxPoint x="210" y="390" as="sourcePoint" />
        <mxPoint x="350" y="390" as="targetPoint" />
        <Array as="points">
          <mxPoint x="250" y="390" />
          <mxPoint x="250" y="390" />
        </Array>
      </mxGeometry>
    </mxCell>
    <!-- Path: Exit (True) -->
    <mxCell id="main_exit_msg" value="แสดง &quot;See you again.&quot;" style="shape=parallelogram;perimeter=parallelogramPerimeter;whiteSpace=wrap;html=1;" vertex="1" parent="1">
      <mxGeometry x="290" y="450" width="120" height="40" as="geometry" />
    </mxCell>
    <mxCell id="main_flow_7" value="จริง" style="endArrow=classic;html=1;exitX=0.5;exitY=1;entryX=0.5;entryY=0;" edge="1" parent="1" source="main_cond_exit" target="main_exit_msg">
      <mxGeometry relative="1" as="geometry" />
    </mxCell>
    <mxCell id="main_flow_exit_loop" value="" style="endArrow=classic;html=1;exitX=0.5;exitY=1;entryX=1;entryY=0.5;" edge="1" parent="1" source="main_exit_msg" target="main_loop_condition">
      <mxGeometry relative="1" as="geometry">
        <mxPoint x="350" y="490" as="sourcePoint" />
        <mxPoint x="210" y="550" as="targetPoint" />
        <Array as="points">
          <mxPoint x="350" y="550" />
        </Array>
      </mxGeometry>
    </mxCell>
    <!-- Path: Invalid Command (False) -->
    <mxCell id="main_invalid_msg" value="แสดง &quot;Invalid command...&quot;" style="shape=parallelogram;perimeter=parallelogramPerimeter;whiteSpace=wrap;html=1;" vertex="1" parent="1">
      <mxGeometry x="450" y="360" width="120" height="40" as="geometry" />
    </mxCell>
    <mxCell id="main_flow_8" value="เท็จ" style="endArrow=classic;html=1;exitX=1;exitY=0.5;entryX=0.5;entryY=0;" edge="1" parent="1" source="main_cond_exit" target="main_invalid_msg">
      <mxGeometry relative="1" as="geometry">
        <mxPoint x="410" y="390" as="sourcePoint" />
        <mxPoint x="510" y="390" as="targetPoint" />
        <Array as="points">
          <mxPoint x="430" y="390" />
        </Array>
      </mxGeometry>
    </mxCell>
    <mxCell id="main_flow_invalid_loop" value="" style="endArrow=classic;html=1;exitX=0.5;exitY=1;entryX=1;entryY=0.5;" edge="1" parent="1" source="main_invalid_msg" target="main_prompt">
      <mxGeometry relative="1" as="geometry">
        <mxPoint x="510" y="400" as="sourcePoint" />
        <mxPoint x="230" y="170" as="targetPoint" />
        <Array as="points">
          <mxPoint x="510" y="440" />
          <mxPoint x="580" y="440" />
          <mxPoint x="580" y="170" />
          <mxPoint x="230" y="170" />
        </Array>
      </mxGeometry>
    </mxCell>
    <!-- Loop Condition Merge and Stop -->
    <mxCell id="main_stop" value="หยุด" style="ellipse;whiteSpace=wrap;html=1;" vertex="1" parent="1">
      <mxGeometry x="110" y="620" width="100" height="40" as="geometry" />
    </mxCell>
    <mxCell id="main_flow_stop" value="เท็จ" style="endArrow=classic;html=1;exitX=0.5;exitY=1;entryX=0.5;entryY=0;" edge="1" parent="1" source="main_loop_condition" target="main_stop">
      <mxGeometry relative="1" as="geometry" />
    </mxCell>
    <mxCell id="main_flow_loop_true" value="จริง" style="endArrow=classic;html=1;exitX=0.5;exitY=0;entryX=0.5;entryY=1;" edge="1" parent="1" source="main_loop_condition" target="main_prompt">
      <mxGeometry relative="1" as="geometry">
        <mxPoint x="160" y="520" as="sourcePoint" />
        <mxPoint x="160" y="190" as="targetPoint" />
        <Array as="points">
          <mxPoint x="160" y="480" />
          <mxPoint x="50" y="480" />
          <mxPoint x="50" y="170" />
          <mxPoint x="90" y="170" />
        </Array>
      </mxGeometry>
    </mxCell>
    <!-- ============================================== -->
    <!-- FUNCTION FLOWCHART: playGame() -->
    <!-- ============================================== -->
    <mxCell id="func_start" value="เริ่มต้น (playGame)" style="ellipse;whiteSpace=wrap;html=1;" vertex="1" parent="1">
      <mxGeometry x="580" y="20" width="120" height="40" as="geometry" />
    </mxCell>
    <mxCell id="func_init" value="กำหนดตัวแปร (Score=100, min=1, max=100)" style="rounded=0;whiteSpace=wrap;html=1;" vertex="1" parent="1">
      <mxGeometry x="540" y="80" width="200" height="40" as="geometry" />
    </mxCell>
    <mxCell id="func_flow_1" value="" style="endArrow=classic;html=1;exitX=0.5;exitY=1;entryX=0.5;entryY=0;" edge="1" parent="1" source="func_start" target="func_init">
      <mxGeometry relative="1" as="geometry" />
    </mxCell>
    <mxCell id="func_rand" value="สุ่มค่า winningNumber (1-100)" style="rounded=0;whiteSpace=wrap;html=1;" vertex="1" parent="1">
      <mxGeometry x="550" y="140" width="180" height="40" as="geometry" />
    </mxCell>
    <mxCell id="func_flow_2" value="" style="endArrow=classic;html=1;exitX=0.5;exitY=1;entryX=0.5;entryY=0;" edge="1" parent="1" source="func_init" target="func_rand">
      <mxGeometry relative="1" as="geometry" />
    </mxCell>
    <mxCell id="func_output_score_init" value="แสดง &quot;(Score=100)&quot;" style="shape=parallelogram;perimeter=parallelogramPerimeter;whiteSpace=wrap;html=1;" vertex="1" parent="1">
      <mxGeometry x="560" y="200" width="160" height="40" as="geometry" />
    </mxCell>
    <mxCell id="func_flow_3" value="" style="endArrow=classic;html=1;exitX=0.5;exitY=1;entryX=0.5;entryY=0;" edge="1" parent="1" source="func_rand" target="func_output_score_init">
      <mxGeometry relative="1" as="geometry" />
    </mxCell>
    <!-- Loop: do { ... } while (currentScore > 0) -->
    <mxCell id="func_loop_condition" value="currentScore &gt; 0" style="rhombus;whiteSpace=wrap;html=1;" vertex="1" parent="1">
      <mxGeometry x="580" y="270" width="120" height="60" as="geometry" />
    </mxCell>
    <mxCell id="func_flow_loop_init" value="" style="endArrow=classic;html=1;exitX=0.5;exitY=1;entryX=0.5;entryY=0;" edge="1" parent="1" source="func_output_score_init" target="func_loop_condition">
      <mxGeometry relative="1" as="geometry" />
    </mxCell>
    <!-- Loop True Path -->
    <mxCell id="func_prompt" value="แสดงข้อความทาย พร้อมช่วง (min-max)" style="shape=parallelogram;perimeter=parallelogramPerimeter;whiteSpace=wrap;html=1;" vertex="1" parent="1">
      <mxGeometry x="540" y="360" width="200" height="40" as="geometry" />
    </mxCell>
    <mxCell id="func_flow_4" value="จริง" style="endArrow=classic;html=1;exitX=0.5;exitY=1;entryX=0.5;entryY=0;" edge="1" parent="1" source="func_loop_condition" target="func_prompt">
      <mxGeometry relative="1" as="geometry" />
    </mxCell>
    <mxCell id="func_input_guess" value="รับค่า guess" style="shape=parallelogram;perimeter=parallelogramPerimeter;whiteSpace=wrap;html=1;" vertex="1" parent="1">
      <mxGeometry x="580" y="420" width="120" height="40" as="geometry" />
    </mxCell>
    <mxCell id="func_flow_5" value="" style="endArrow=classic;html=1;exitX=0.5;exitY=1;entryX=0.5;entryY=0;" edge="1" parent="1" source="func_prompt" target="func_input_guess">
      <mxGeometry relative="1" as="geometry" />
    </mxCell>
    <!-- Condition: Input Error (scanf != 1) -->
    <mxCell id="func_cond_input" value="รับค่า guess สำเร็จ หรือไม่" style="rhombus;whiteSpace=wrap;html=1;" vertex="1" parent="1">
      <mxGeometry x="560" y="480" width="160" height="60" as="geometry" />
    </mxCell>
    <mxCell id="func_flow_6" value="" style="endArrow=classic;html=1;exitX=0.5;exitY=1;entryX=0.5;entryY=0;" edge="1" parent="1" source="func_input_guess" target="func_cond_input">
      <mxGeometry relative="1" as="geometry" />
    </mxCell>
    <!-- Path: Input Error (False) -->
    <mxCell id="func_error_clear" value="ล้าง Input Buffer" style="rounded=0;whiteSpace=wrap;html=1;" vertex="1" parent="1">
      <mxGeometry x="780" y="490" width="120" height="40" as="geometry" />
    </mxCell>
    <mxCell id="func_flow_error_1" value="เท็จ" style="endArrow=classic;html=1;exitX=1;exitY=0.5;entryX=0;entryY=0.5;" edge="1" parent="1" source="func_cond_input" target="func_error_clear">
      <mxGeometry relative="1" as="geometry">
        <mxPoint x="720" y="510" as="sourcePoint" />
      </mxGeometry>
    </mxCell>
    <mxCell id="func_flow_error_loop" value="" style="endArrow=classic;html=1;exitX=0.5;exitY=0;entryX=1;entryY=0.5;" edge="1" parent="1" source="func_error_clear" target="func_loop_condition">
      <mxGeometry relative="1" as="geometry">
        <mxPoint x="840" y="490" as="sourcePoint" />
        <Array as="points">
          <mxPoint x="840" y="300" />
          <mxPoint x="700" y="300" />
        </Array>
      </mxGeometry>
    </mxCell>
    <!-- Path: Input Success (True) -->
    <mxCell id="func_cond_correct" value="guess == winningNumber" style="rhombus;whiteSpace=wrap;html=1;" vertex="1" parent="1">
      <mxGeometry x="550" y="580" width="180" height="60" as="geometry" />
    </mxCell>
    <mxCell id="func_flow_7" value="จริง" style="endArrow=classic;html=1;exitX=0.5;exitY=1;entryX=0.5;entryY=0;" edge="1" parent="1" source="func_cond_input" target="func_cond_correct">
      <mxGeometry relative="1" as="geometry" />
    </mxCell>
    <!-- Path: Correct Guess (True) -->
    <mxCell id="func_output_win" value="แสดง &quot;That is correct!&quot; &amp; Score" style="shape=parallelogram;perimeter=parallelogramPerimeter;whiteSpace=wrap;html=1;" vertex="1" parent="1">
      <mxGeometry x="540" y="670" width="200" height="40" as="geometry" />
    </mxCell>
    <mxCell id="func_flow_8" value="จริง" style="endArrow=classic;html=1;exitX=0.5;exitY=1;entryX=0.5;entryY=0;" edge="1" parent="1" source="func_cond_correct" target="func_output_win">
      <mxGeometry relative="1" as="geometry" />
    </mxCell>
    <mxCell id="func_break_win" value="ออกจาก Loop (Break)" style="rounded=0;whiteSpace=wrap;html=1;" vertex="1" parent="1">
      <mxGeometry x="580" y="730" width="120" height="40" as="geometry" />
    </mxCell>
    <mxCell id="func_flow_9" value="" style="endArrow=classic;html=1;exitX=0.5;exitY=1;entryX=0.5;entryY=0;" edge="1" parent="1" source="func_output_win" target="func_break_win">
      <mxGeometry relative="1" as="geometry" />
    </mxCell>
    <mxCell id="func_flow_break_to_check" value="" style="endArrow=classic;html=1;exitX=0.5;exitY=1;entryX=1;entryY=0.5;" edge="1" parent="1" source="func_break_win" target="func_loop_condition">
      <mxGeometry relative="1" as="geometry">
        <mxPoint x="640" y="770" as="sourcePoint" />
        <Array as="points">
          <mxPoint x="640" y="800" />
          <mxPoint x="940" y="800" />
          <mxPoint x="940" y="300" />
          <mxPoint x="700" y="300" />
        </Array>
      </mxGeometry>
    </mxCell>
    <!-- Path: Incorrect Guess (False) -->
    <mxCell id="func_process_deduct" value="currentScore = currentScore - 10" style="rounded=0;whiteSpace=wrap;html=1;" vertex="1" parent="1">
      <mxGeometry x="780" y="590" width="160" height="40" as="geometry" />
    </mxCell>
    <mxCell id="func_flow_10" value="เท็จ" style="endArrow=classic;html=1;exitX=1;exitY=0.5;entryX=0;entryY=0.5;" edge="1" parent="1" source="func_cond_correct" target="func_process_deduct">
      <mxGeometry relative="1" as="geometry">
        <mxPoint x="730" y="610" as="sourcePoint" />
      </mxGeometry>
    </mxCell>
    <!-- Condition: Score <= 0 -->
    <mxCell id="func_cond_score_zero" value="currentScore &lt;= 0" style="rhombus;whiteSpace=wrap;html=1;" vertex="1" parent="1">
      <mxGeometry x="790" y="670" width="140" height="60" as="geometry" />
    </mxCell>
    <mxCell id="func_flow_11" value="" style="endArrow=classic;html=1;exitX=0.5;exitY=1;entryX=0.5;entryY=0;" edge="1" parent="1" source="func_process_deduct" target="func_cond_score_zero">
      <mxGeometry relative="1" as="geometry" />
    </mxCell>
    <!-- Path: Score Zero (True) -->
    <mxCell id="func_process_score_min" value="currentScore = 0" style="rounded=0;whiteSpace=wrap;html=1;" vertex="1" parent="1">
      <mxGeometry x="780" y="760" width="160" height="40" as="geometry" />
    </mxCell>
    <mxCell id="func_flow_12" value="จริง" style="endArrow=classic;html=1;exitX=0.5;exitY=1;entryX=0.5;entryY=0;" edge="1" parent="1" source="func_cond_score_zero" target="func_process_score_min">
      <mxGeometry relative="1" as="geometry" />
    </mxCell>
    <mxCell id="func_output_lose" value="แสดงข้อความคะแนนหมดและเฉลย" style="shape=parallelogram;perimeter=parallelogramPerimeter;whiteSpace=wrap;html=1;" vertex="1" parent="1">
      <mxGeometry x="750" y="820" width="220" height="40" as="geometry" />
    </mxCell>
    <mxCell id="func_flow_13" value="" style="endArrow=classic;html=1;exitX=0.5;exitY=1;entryX=0.5;entryY=0;" edge="1" parent="1" source="func_process_score_min" target="func_output_lose">
      <mxGeometry relative="1" as="geometry" />
    </mxCell>
    <mxCell id="func_break_lose" value="ออกจาก Loop (Break)" style="rounded=0;whiteSpace=wrap;html=1;" vertex="1" parent="1">
      <mxGeometry x="800" y="890" width="120" height="40" as="geometry" />
    </mxCell>
    <mxCell id="func_flow_14" value="" style="endArrow=classic;html=1;exitX=0.5;exitY=1;entryX=0.5;entryY=0;" edge="1" parent="1" source="func_output_lose" target="func_break_lose">
      <mxGeometry relative="1" as="geometry" />
    </mxCell>
    <mxCell id="func_flow_break_lose_to_check" value="" style="endArrow=classic;html=1;exitX=0.5;exitY=1;entryX=1;entryY=0.5;" edge="1" parent="1" source="func_break_lose" target="func_loop_condition">
      <mxGeometry relative="1" as="geometry">
        <mxPoint x="860" y="930" as="sourcePoint" />
        <Array as="points">
          <mxPoint x="860" y="980" />
          <mxPoint x="980" y="980" />
          <mxPoint x="980" y="300" />
          <mxPoint x="700" y="300" />
        </Array>
      </mxGeometry>
    </mxCell>
    <!-- Path: Score Remains (False) -->
    <mxCell id="func_cond_higher" value="guess &lt; winningNumber" style="rhombus;whiteSpace=wrap;html=1;" vertex="1" parent="1">
      <mxGeometry x="580" y="800" width="120" height="60" as="geometry" />
    </mxCell>
    <mxCell id="func_flow_15" value="เท็จ" style="endArrow=classic;html=1;exitX=0;exitY=0.5;entryX=0.5;entryY=0;" edge="1" parent="1" source="func_cond_score_zero" target="func_cond_higher">
      <mxGeometry relative="1" as="geometry">
        <mxPoint x="790" y="700" as="sourcePoint" />
        <Array as="points">
          <mxPoint x="750" y="700" />
          <mxPoint x="750" y="830" />
        </Array>
      </mxGeometry>
    </mxCell>
    <!-- Path: HIGHER (True) -->
    <mxCell id="func_output_higher" value="แสดง &quot;HIGHER&quot; &amp; Score" style="shape=parallelogram;perimeter=parallelogramPerimeter;whiteSpace=wrap;html=1;" vertex="1" parent="1">
      <mxGeometry x="550" y="890" width="180" height="40" as="geometry" />
    </mxCell>
    <mxCell id="func_flow_16" value="จริง" style="endArrow=classic;html=1;exitX=0.5;exitY=1;entryX=0.5;entryY=0;" edge="1" parent="1" source="func_cond_higher" target="func_output_higher">
      <mxGeometry relative="1" as="geometry" />
    </mxCell>
    <mxCell id="func_process_min_update" value="อัปเดต minGuess = guess + 1" style="rounded=0;whiteSpace=wrap;html=1;" vertex="1" parent="1">
      <mxGeometry x="540" y="950" width="200" height="40" as="geometry" />
    </mxCell>
    <mxCell id="func_flow_17" value="" style="endArrow=classic;html=1;exitX=0.5;exitY=1;entryX=0.5;entryY=0;" edge="1" parent="1" source="func_output_higher" target="func_process_min_update">
      <mxGeometry relative="1" as="geometry" />
    </mxCell>
    <mxCell id="func_flow_higher_loop" value="" style="endArrow=classic;html=1;exitX=0.5;exitY=0;entryX=0;entryY=0.5;" edge="1" parent="1" source="func_process_min_update" target="func_loop_condition">
      <mxGeometry relative="1" as="geometry">
        <mxPoint x="640" y="950" as="sourcePoint" />
        <Array as="points">
          <mxPoint x="640" y="1020" />
          <mxPoint x="450" y="1020" />
          <mxPoint x="450" y="300" />
          <mxPoint x="580" y="300" />
        </Array>
      </mxGeometry>
    </mxCell>
    <!-- Path: LOWER (False/Else) -->
    <mxCell id="func_output_lower" value="แสดง &quot;LOWER&quot; &amp; Score" style="shape=parallelogram;perimeter=parallelogramPerimeter;whiteSpace=wrap;html=1;" vertex="1" parent="1">
      <mxGeometry x="780" y="890" width="180" height="40" as="geometry" />
    </mxCell>
    <mxCell id="func_flow_18" value="เท็จ" style="endArrow=classic;html=1;exitX=1;exitY=0.5;entryX=0.5;entryY=0;" edge="1" parent="1" source="func_cond_higher" target="func_output_lower">
      <mxGeometry relative="1" as="geometry">
        <mxPoint x="700" y="830" as="sourcePoint" />
        <Array as="points">
          <mxPoint x="740" y="830" />
          <mxPoint x="740" y="910" />
        </Array>
      </mxGeometry>
    </mxCell>
    <mxCell id="func_process_max_update" value="อัปเดต maxGuess = guess - 1" style="rounded=0;whiteSpace=wrap;html=1;" vertex="1" parent="1">
      <mxGeometry x="760" y="950" width="220" height="40" as="geometry" />
    </mxCell>
    <mxCell id="func_flow_19" value="" style="endArrow=classic;html=1;exitX=0.5;exitY=1;entryX=0.5;entryY=0;" edge="1" parent="1" source="func_output_lower" target="func_process_max_update">
      <mxGeometry relative="1" as="geometry" />
    </mxCell>
    <mxCell id="func_flow_lower_loop" value="" style="endArrow=classic;html=1;exitX=0.5;exitY=0;entryX=1;entryY=0.5;" edge="1" parent="1" source="func_process_max_update" target="func_loop_condition">
      <mxGeometry relative="1" as="geometry">
        <mxPoint x="870" y="950" as="sourcePoint" />
        <Array as="points">
          <mxPoint x="870" y="1020" />
          <mxPoint x="1060" y="1020" />
          <mxPoint x="1060" y="300" />
          <mxPoint x="700" y="300" />
        </Array>
      </mxGeometry>
    </mxCell>
    <!-- Loop False Path and Stop -->
    <mxCell id="func_stop" value="จบ (playGame)" style="ellipse;whiteSpace=wrap;html=1;" vertex="1" parent="1">
      <mxGeometry x="580" y="1050" width="120" height="40" as="geometry" />
    </mxCell>
    <mxCell id="func_flow_stop" value="เท็จ" style="endArrow=classic;html=1;exitX=0.5;exitY=1;entryX=0.5;entryY=0;" edge="1" parent="1" source="func_loop_condition" target="func_stop">
      <mxGeometry relative="1" as="geometry">
        <mxPoint x="640" y="330" as="sourcePoint" />
        <Array as="points">
          <mxPoint x="640" y="1020" />
        </Array>
      </mxGeometry>
    </mxCell>
  </root>
</mxGraphModel>
